<svg width="122" height="100" viewBox="0 0 122 100" fill="none" xmlns="http://www.w3.org/2000/svg">
<path fill-rule="evenodd" clip-rule="evenodd" d="M119.78 13.1242C123.136 17.9661 122.643 24.4983 118.598 28.7809L107.224 40.8223C106.048 42.0674 104.411 42.7725 102.698 42.7725H95.6048L97.5143 50.6535C97.9481 52.4456 97.567 54.3379 96.4718 55.8213L79.4934 78.8256V89.2602C79.4934 91.3577 78.4379 93.3146 76.686 94.4666L69.826 98.9756C68.8102 99.6434 67.6214 100 66.4062 100H55.5946C54.3793 100 53.1904 99.6434 52.1748 98.9756L45.315 94.4666C43.563 93.3146 42.5076 91.3577 42.5076 89.2602V78.8256L25.5289 55.8213C24.434 54.3379 24.0524 52.4456 24.4866 50.6535L26.396 42.7725H19.3022C17.5897 42.7725 15.9525 42.0674 14.7762 40.8223L3.40217 28.7809C-0.643159 24.4983 -1.13628 17.9661 2.22007 13.1242L11.3169 0L10.4571 17.1252L18.5749 25.2471H30.6488L30.6482 25.2489H91.3519L91.3513 25.2471H103.425L111.543 17.1252L110.683 0L119.78 13.1242ZM45.8647 36.0012C42.4072 35.1797 38.9642 37.4155 38.3063 40.9092L36.5782 50.089C36.3589 51.2536 36.9897 52.4115 38.0869 52.8581L49.5843 57.5386C50.7815 58.0261 51.4073 59.3488 51.0249 60.584L48.3068 69.3612L51.9412 76.0445V86.632L58.4106 89.8403C60.1982 90.7276 62.3025 90.7036 64.0693 89.7758L70.0597 86.632V76.0445L73.6943 69.3612L70.9767 60.584C70.5943 59.3487 71.22 58.026 72.4167 57.5386L83.9141 52.8581C85.0114 52.4115 85.6427 51.2536 85.4233 50.089L83.7064 40.9737C83.0443 37.4557 79.5612 35.2188 76.0877 36.0809L62.9384 39.3452C61.974 39.5846 60.9662 39.5895 59.9995 39.3598L45.8647 36.0012Z" fill="black"/>
</svg>
