<svg width="653" height="146" viewBox="0 0 653 146" fill="none" xmlns="http://www.w3.org/2000/svg">
<path d="M652.575 117.529H641.337L640.927 105.799H640.516C639.313 110.119 637.29 113.4 634.447 115.642C631.658 117.829 628.459 118.923 624.849 118.923C621.404 118.923 618.314 118.021 615.58 116.216C612.846 114.357 610.713 111.733 609.181 108.342C607.65 104.952 606.885 101.014 606.885 96.5298C606.885 91.9908 607.65 88.0258 609.181 84.6353C610.713 81.1901 612.846 78.5649 615.58 76.7603C618.314 74.901 621.404 73.9712 624.849 73.9712C628.459 73.9712 631.658 75.0924 634.447 77.3345C637.291 79.5766 639.313 82.8582 640.516 87.1782H640.927V60.1089H652.575V117.529ZM273.962 98.9907C273.962 102.491 274.782 105.143 276.423 106.948C278.118 108.752 280.524 109.655 283.641 109.655C286.758 109.655 289.247 108.561 291.106 106.374C293.02 104.186 293.977 101.178 293.977 97.3501V75.2017H305.707V117.529H294.305L293.977 104.651H293.485C293.102 107.549 292.145 110.065 290.614 112.198C289.138 114.33 287.278 115.97 285.036 117.119C282.794 118.267 280.415 118.841 277.899 118.841C275.055 118.841 272.43 118.212 270.024 116.955C267.673 115.642 265.786 113.756 264.364 111.295C262.997 108.835 262.313 105.909 262.313 102.518V75.2017H273.962V98.9907ZM382.775 58.7964C390.595 58.7964 396.884 60.7379 401.641 64.6206C406.454 68.5033 409.27 73.7254 410.091 80.2876H397.213C396.556 76.7878 394.998 73.9985 392.537 71.9204C390.076 69.7877 386.877 68.7222 382.939 68.7222C377.58 68.7769 373.506 70.6081 370.717 74.2173C367.928 77.7719 366.533 82.6393 366.533 88.8188C366.533 95.2171 368.01 100.167 370.963 103.667C373.97 107.166 378.373 108.917 384.17 108.917C387.068 108.916 389.639 108.37 391.881 107.276C394.177 106.182 395.982 104.705 397.295 102.846C398.607 100.932 399.344 98.8812 399.509 96.6938V95.8735H380.15V87.0142H411.321V117.529H400.657L400.083 104.241H399.509C398.305 108.561 396.064 112.089 392.783 114.823C389.556 117.502 385.154 118.841 379.576 118.841C374.545 118.841 370.033 117.638 366.041 115.232C362.104 112.826 359.013 109.354 356.771 104.815C354.584 100.276 353.491 94.9437 353.491 88.8188C353.491 82.8034 354.638 77.5531 356.935 73.0688C359.287 68.5301 362.65 65.0307 367.025 62.5698C371.455 60.0543 376.705 58.7964 382.775 58.7964ZM475.513 73.8892C479.779 73.8892 483.661 74.8191 487.161 76.6782C490.661 78.4828 493.423 81.0808 495.446 84.4712C497.524 87.8617 498.563 91.7721 498.563 96.2017C498.563 100.741 497.551 104.733 495.528 108.178C493.505 111.623 490.715 114.275 487.161 116.134C483.661 117.939 479.779 118.841 475.513 118.841C471.248 118.841 467.338 117.939 463.783 116.134C460.283 114.275 457.494 111.623 455.416 108.178C453.392 104.733 452.381 100.741 452.381 96.2017C452.381 91.7721 453.392 87.8617 455.416 84.4712C457.494 81.0807 460.283 78.4829 463.783 76.6782C467.338 74.8189 471.248 73.8892 475.513 73.8892ZM516.16 98.9907C516.16 102.491 516.98 105.143 518.621 106.948C520.316 108.752 522.723 109.655 525.84 109.655C528.957 109.655 531.445 108.561 533.304 106.374C535.218 104.186 536.176 101.178 536.176 97.3501V75.2017H547.905V117.529H536.504L536.176 104.651H535.683C535.301 107.549 534.343 110.065 532.812 112.198C531.336 114.33 529.476 115.97 527.234 117.119C524.992 118.267 522.613 118.841 520.097 118.841C517.254 118.841 514.629 118.212 512.222 116.955C509.871 115.642 507.984 113.756 506.562 111.295C505.195 108.835 504.512 105.909 504.511 102.518V75.2017H516.16V98.9907ZM238.031 60.1089C243.336 60.1089 247.465 61.2574 250.418 63.5542C253.371 65.8509 254.847 69.0223 254.847 73.0688C254.847 76.8969 253.508 79.9322 250.828 82.1743C248.148 84.4165 244.429 85.6196 239.672 85.7837V86.3579C245.031 86.5767 249.105 88.026 251.894 90.7056C254.738 93.3852 256.16 96.776 256.16 100.877C256.16 106.237 254.382 110.366 250.828 113.264C247.273 116.108 242.188 117.529 235.571 117.529H207.516V60.1089H238.031ZM326.051 117.529H314.402V60.1089H326.051V117.529ZM346.497 117.529H334.848V60.1089H346.497V117.529ZM450.309 84.3071C445.716 84.5806 442.134 85.2096 439.564 86.1938C436.994 87.1235 435.08 88.6822 433.822 90.8696C432.564 93.0024 431.853 96.065 431.689 100.057V117.529H420.041V75.2017H431.361L431.689 91.4438H432.181C432.838 87.1236 433.795 83.7602 435.052 81.354C436.31 78.948 438.115 77.1977 440.467 76.104C442.873 75.0105 446.154 74.4634 450.309 74.4634V84.3071ZM584.327 73.8892C587.17 73.8892 589.768 74.5457 592.119 75.8579C594.525 77.1156 596.439 78.9753 597.861 81.436C599.283 83.8969 599.994 86.8229 599.994 90.2134V117.529H588.264V93.7407C588.264 90.3502 587.417 87.725 585.721 85.8657C584.026 84.0064 581.674 83.0767 578.667 83.0767C575.44 83.0767 572.897 84.1705 571.038 86.3579C569.233 88.4907 568.331 91.4986 568.331 95.3813V117.529H556.6V75.2017H567.921L568.331 88.0806H568.823C569.425 83.7604 571.175 80.3149 574.073 77.7446C577.026 75.1745 580.444 73.8892 584.327 73.8892ZM629.853 82.0923C626.463 82.0923 623.728 83.3776 621.65 85.9478C619.627 88.4633 618.615 91.9908 618.615 96.5298C618.615 100.959 619.627 104.46 621.65 107.03C623.728 109.545 626.463 110.803 629.853 110.803C633.189 110.803 635.868 109.709 637.891 107.522C639.915 105.28 640.926 102.436 640.927 98.9907V93.9868C640.927 90.5416 639.915 87.6977 637.891 85.4556C635.868 83.2137 633.189 82.0924 629.853 82.0923ZM475.513 82.7485C471.959 82.7485 469.17 83.8971 467.146 86.1938C465.178 88.4907 464.193 91.8268 464.193 96.2017C464.193 100.686 465.178 104.104 467.146 106.456C469.17 108.807 471.959 109.983 475.513 109.983C479.013 109.983 481.748 108.807 483.717 106.456C485.74 104.104 486.752 100.686 486.752 96.2017C486.752 91.8268 485.74 88.4907 483.717 86.1938C481.748 83.8971 479.013 82.7486 475.513 82.7485ZM220.149 84.2251H220.159V93.0845H220.149V107.686H234.751C237.375 107.686 239.453 107.029 240.984 105.717C242.515 104.405 243.281 102.6 243.281 100.303C243.281 98.1158 242.433 96.3657 240.738 95.0532C239.098 93.7409 236.883 93.0845 234.094 93.0845H223.846V84.2251H232.782C235.735 84.225 238.004 83.5687 239.59 82.2563C241.176 80.9439 241.969 79.0844 241.969 76.6782C241.968 74.5456 241.285 72.9047 239.918 71.7563C238.551 70.5536 236.582 69.9517 234.012 69.9517H220.149V84.2251Z" fill="black"/>
<path fill-rule="evenodd" clip-rule="evenodd" d="M174.762 19.1405C179.659 26.202 178.94 35.7286 173.038 41.9743L156.443 59.5356C154.727 61.3515 152.338 62.3799 149.839 62.3799H139.49L142.276 73.8736C142.909 76.4872 142.353 79.247 140.755 81.4104L115.983 114.96V130.178C115.983 133.237 114.443 136.091 111.887 137.771L101.878 144.347C100.396 145.321 98.6615 145.841 96.8885 145.841H81.114C79.3409 145.841 77.6062 145.321 76.1244 144.347L66.1159 137.771C63.5596 136.091 62.0197 133.237 62.0197 130.178V114.96L37.2473 81.4104C35.6499 79.247 35.0931 76.4872 35.7266 73.8736L38.5125 62.3799H28.1624C25.6639 62.3799 23.2751 61.3515 21.5589 59.5356L4.96386 41.9743C-0.938388 35.7286 -1.65786 26.202 3.23914 19.1405L16.5117 0L15.2572 24.9756L27.1013 36.8206H44.7175L44.7166 36.8232H133.285L133.284 36.8206H150.9L162.744 24.9756L161.489 0L174.762 19.1405ZM66.9179 52.5045C61.8733 51.3064 56.8499 54.5671 55.89 59.6624L53.3686 73.0503C53.0487 74.7487 53.969 76.4374 55.5698 77.0888L72.3449 83.9149C74.0916 84.6258 75.0047 86.5549 74.4467 88.3563L70.4809 101.157L75.7837 110.904V126.345L85.2227 131.024C87.8309 132.318 90.901 132.283 93.4789 130.93L102.219 126.345V110.904L107.522 101.157L103.557 88.3563C102.999 86.5548 103.912 84.6257 105.658 83.9149L122.433 77.0888C124.034 76.4374 124.955 74.7487 124.635 73.0503L122.13 59.7565C121.164 54.6258 116.082 51.3634 111.014 52.6207L91.8288 57.3814C90.4218 57.7306 88.9513 57.7377 87.5409 57.4027L66.9179 52.5045Z" fill="black"/>
</svg>
